<?xml version="1.0" encoding="iso-8859-1"?>
<!-- Generator: Adobe Illustrator 19.0.0, SVG Export Plug-In . SVG Version: 6.00 Build 0)  -->
<svg version="1.1" id="Layer_1" xmlns="http://www.w3.org/2000/svg" xmlns:xlink="http://www.w3.org/1999/xlink" x="0px" y="0px"
	 viewBox="0 0 512 512" style="enable-background:new 0 0 512 512;" xml:space="preserve" fill="#3fb0ac">
<g>
	<g>
		<path d="M501.801,7.802H10.199C4.566,7.802,0,12.37,0,18.002v80.262c0,5.632,4.566,10.199,10.199,10.199h15.354l158.106,222.761
			l45.506,165.479c1.218,4.427,5.243,7.495,9.834,7.495h34c4.592,0,8.616-3.068,9.834-7.495l45.506-165.479l158.106-222.761h15.356
			c5.632,0,10.199-4.567,10.199-10.199V18.002C512,12.37,507.433,7.802,501.801,7.802z M265.227,483.799h-18.454l-40.374-146.813
			h99.202L265.227,483.799z M313.715,316.586H198.285L50.568,108.463h410.865L313.715,316.586z M491.602,88.064H20.398V28.201
			h471.203V88.064z"/>
	</g>
</g>
<g>
	<g>
		<path d="M416.817,127.849c-4.594-3.258-10.96-2.18-14.221,2.414l-5.538,7.802c-3.261,4.593-2.18,10.959,2.414,14.221
			c1.792,1.271,3.852,1.883,5.894,1.883c3.193,0,6.338-1.495,8.327-4.297l5.538-7.802
			C422.491,137.476,421.411,131.11,416.817,127.849z"/>
	</g>
</g>
<g>
	<g>
		<path d="M390.098,165.336c-4.594-3.261-10.96-2.181-14.221,2.413l-83.368,117.462c-3.261,4.594-2.181,10.96,2.413,14.22
			c1.792,1.272,3.852,1.884,5.894,1.884c3.193,0,6.338-1.495,8.326-4.297l83.369-117.462
			C395.772,174.962,394.692,168.596,390.098,165.336z"/>
	</g>
</g>
<g>
</g>
<g>
</g>
<g>
</g>
<g>
</g>
<g>
</g>
<g>
</g>
<g>
</g>
<g>
</g>
<g>
</g>
<g>
</g>
<g>
</g>
<g>
</g>
<g>
</g>
<g>
</g>
<g>
</g>
</svg>
