<?xml version="1.0" encoding="iso-8859-1"?>
<!-- Generator: Adobe Illustrator 16.0.0, SVG Export Plug-In . SVG Version: 6.00 Build 0)  -->
<!DOCTYPE svg PUBLIC "-//W3C//DTD SVG 1.1//EN" "http://www.w3.org/Graphics/SVG/1.1/DTD/svg11.dtd">
<svg version="1.1" id="Capa_1" xmlns="http://www.w3.org/2000/svg" xmlns:xlink="http://www.w3.org/1999/xlink" x="0px" y="0px"
	 width="532.195px" height="532.196px" viewBox="0 0 532.195 532.196" style="enable-background:new 0 0 532.195 532.196;"
	 xml:space="preserve" fill="#3fb0ac">
<g>
	<g>
		<polygon points="386.605,508.282 66.022,508.282 66.022,56.797 131.992,56.797 131.992,103.132 336.09,103.132 336.09,56.797 
			386.605,56.797 386.605,248.536 410.521,225.076 410.521,32.883 336.09,32.883 336.09,0 274.038,0 274.038,23.915 195.329,23.915 
			195.329,0 131.992,0 131.992,32.883 42.107,32.883 42.107,532.196 410.521,532.196 410.521,373.667 386.605,403.141 		"/>
		<rect x="111.125" y="165.908" width="245.82" height="17.936"/>
		<rect x="111.125" y="209.254" width="245.82" height="17.936"/>
		<rect x="111.125" y="254.322" width="245.82" height="17.936"/>
		<path d="M490.088,255.051l-38.511-36.83l-17.516,18.298l-8.618-8.244l-155.13,162.184l-1.244,5.23l-17.136,71.523l70.693-20.295
			l5.173-1.483l155.13-162.172l-10.357-9.908L490.088,255.051z M450.946,270.284L310.19,417.421l-11.116-10.638L439.83,259.641
			L450.946,270.284z M425.841,246.276l9.388,8.98L294.473,402.393l-9.388-8.991L425.841,246.276z M281.301,445.54l-9.026-8.629
			l7.438-31.037l32.275,30.85L281.301,445.54z M324.18,430.792l-9.389-8.991l140.756-147.125l9.389,8.985L324.18,430.792z"/>
	</g>
</g>
<g>
</g>
<g>
</g>
<g>
</g>
<g>
</g>
<g>
</g>
<g>
</g>
<g>
</g>
<g>
</g>
<g>
</g>
<g>
</g>
<g>
</g>
<g>
</g>
<g>
</g>
<g>
</g>
<g>
</g>
</svg>
